<svg width="32" height="32" viewBox="0 0 100 100" fill="none" xmlns="http://www.w3.org/2000/svg">
  <rect width="100" height="100" rx="22" fill="#1a8fe3"/>
  <clipPath id="lg"><circle cx="38" cy="52" r="26"/></clipPath>
  <circle cx="38" cy="52" r="26" fill="white"/>
  <g clip-path="url(#lg)">
    <rect x="12" y="30" width="52" height="5" fill="#1a8fe3"/>
    <rect x="12" y="39" width="52" height="5" fill="#1a8fe3"/>
    <rect x="12" y="48" width="52" height="5" fill="#1a8fe3"/>
    <rect x="12" y="57" width="52" height="5" fill="#1a8fe3"/>
    <rect x="12" y="66" width="52" height="5" fill="#1a8fe3"/>
  </g>
  <clipPath id="rg"><circle cx="62" cy="52" r="26"/></clipPath>
  <circle cx="62" cy="52" r="26" fill="white"/>
  <g clip-path="url(#rg)" transform="rotate(-20 62 52)">
    <rect x="36" y="30" width="52" height="5" fill="#1a8fe3"/>
    <rect x="36" y="39" width="52" height="5" fill="#1a8fe3"/>
    <rect x="36" y="48" width="52" height="5" fill="#1a8fe3"/>
    <rect x="36" y="57" width="52" height="5" fill="#1a8fe3"/>
    <rect x="36" y="66" width="52" height="5" fill="#1a8fe3"/>
  </g>
</svg>
